<svg width="30" height="30" viewBox="0 0 30 30" fill="none" xmlns="http://www.w3.org/2000/svg">
<path d="M0 15C0 6.71573 6.71573 0 15 0C23.2843 0 30 6.71573 30 15C30 23.2843 23.2843 30 15 30C6.71573 30 0 23.2843 0 15Z" fill="#96BFBC"/>
<path fill-rule="evenodd" clip-rule="evenodd" d="M19.6471 9.18236L22.8295 6L24 7.17052L20.861 10.3095C21.9926 11.6204 22.6769 13.3281 22.6769 15.1957C22.6769 19.3274 19.3274 22.6769 15.1957 22.6769C13.3281 22.6769 11.6204 21.9926 10.3095 20.861L7.17052 24L6 22.8295L9.18236 19.6471C8.26003 18.4032 7.7145 16.8632 7.7145 15.1957C7.7145 11.0639 11.0639 7.7145 15.1957 7.7145C16.8632 7.7145 18.4032 8.26003 19.6471 9.18236ZM18.4599 10.3695C17.5288 9.73849 16.4053 9.36985 15.1957 9.36985C11.9782 9.36985 9.36985 11.9782 9.36985 15.1957C9.36985 16.4053 9.73849 17.5288 10.3695 18.4599L18.4599 10.3695ZM11.4841 19.6864C12.492 20.5204 13.7853 21.0215 15.1957 21.0215C18.4132 21.0215 21.0215 18.4132 21.0215 15.1957C21.0215 13.7853 20.5204 12.492 19.6864 11.4841L11.4841 19.6864Z" fill="white"/>
</svg>
