<svg width="50" height="50" viewBox="0 0 50 50" fill="none" xmlns="http://www.w3.org/2000/svg">
<path d="M0 25C0 11.1929 11.1929 0 25 0C38.8071 0 50 11.1929 50 25C50 38.8071 38.8071 50 25 50C11.1929 50 0 38.8071 0 25Z" fill="black"/>
<path d="M34.307 24.59C34.284 24.6015 34.2639 24.6101 34.2409 24.6216C34.0629 24.7135 33.8935 24.8312 33.7442 24.9805L26.8048 31.9317L25.4353 30.5621L25.6248 30.3726L25.6219 30.3698L32.3719 23.608C33.2188 22.761 34.3558 22.3878 35.4582 22.4854C35.6047 22.4997 35.7569 22.5314 35.9033 22.5629L36.0756 22.7352C36.5924 23.252 36.5952 24.099 36.0756 24.6187L36.0382 24.656C35.5788 24.4091 35.0391 24.3575 34.5482 24.5038C34.5165 24.5124 34.4821 24.5239 34.4477 24.5354L34.4476 24.5355L34.307 24.59Z" fill="#218380"/>
<path d="M31.9269 23.1917L30.5574 24.5612L23.6123 17.6388C22.9864 17.0128 22.6189 16.2261 22.5098 15.4107H22.5155C22.4552 14.9542 22.4753 14.4919 22.573 14.044L22.6907 13.9263C23.2104 13.4066 24.0573 13.4095 24.5741 13.9263C24.5942 13.9464 24.6143 13.9722 24.6344 13.9923C24.4765 14.2938 24.4047 14.6355 24.4191 14.9714C24.4191 15.0001 24.4248 15.0288 24.4248 15.0576L24.4334 15.1351C24.4334 15.1466 24.4363 15.1552 24.4363 15.1667L24.4449 15.227C24.4506 15.2557 24.4564 15.2786 24.4621 15.3073C24.465 15.316 24.465 15.3217 24.4679 15.3303C24.4736 15.359 24.4822 15.3906 24.4908 15.4222V15.4222C24.4937 15.4308 24.4937 15.4366 24.4966 15.4452C24.5052 15.471 24.5138 15.5026 24.5253 15.5313C24.5253 15.537 24.5282 15.5399 24.5282 15.5457C24.5511 15.6146 24.5798 15.6835 24.6143 15.7524C24.7061 15.9361 24.8267 16.1084 24.9789 16.2606L31.9269 23.1917Z" fill="#D81159"/>
<path d="M25.4125 36.0576L25.3723 36.0175C25.6652 35.4547 25.6681 34.7799 25.3752 34.2172C25.2862 34.0478 25.1713 33.887 25.0307 33.7463L18.5047 27.2315L18.0798 26.8066L19.4493 25.437L26.3945 32.371C26.5351 32.5117 26.6615 32.6553 26.7763 32.8103C27.1668 33.3386 27.4022 33.9415 27.4912 34.5589C27.4941 34.5675 27.4941 34.579 27.497 34.5876C27.4998 34.6019 27.4998 34.6134 27.5027 34.6278C27.5343 34.8833 27.5429 35.1389 27.5228 35.3944C27.5113 35.5667 27.4883 35.7332 27.4539 35.8997L27.296 36.0576C26.7763 36.5773 25.9322 36.5773 25.4125 36.0576Z" fill="#73D2DE"/>
<path d="M36.4975 22.2784L32.7995 18.5975L27.9904 13.7767C27.7981 13.0101 27.4048 12.2837 26.8047 11.6836C26.5463 11.4252 26.2621 11.2041 25.9578 11.0204C26.8191 10.9342 27.7033 11.1352 28.4555 11.6233C28.4585 11.6262 28.4671 11.6291 28.4728 11.6348C28.4843 11.6405 28.4958 11.652 28.5072 11.6578C28.5274 11.6721 28.5446 11.6836 28.5618 11.6951C28.5733 11.7008 28.5847 11.7123 28.5963 11.7181C28.6135 11.7295 28.6336 11.7439 28.6508 11.7554C28.6594 11.764 28.6738 11.7726 28.6824 11.7812C28.7025 11.7956 28.7168 11.8099 28.737 11.8243C28.7484 11.8358 28.7599 11.8415 28.7685 11.8501C28.7886 11.8645 28.803 11.8789 28.8231 11.8932C28.8317 11.9018 28.8431 11.9076 28.8518 11.9162C28.869 11.9334 28.8891 11.9478 28.9063 11.965C28.9149 11.9679 28.9236 11.9765 28.9322 11.9851C28.9523 12.0052 28.9752 12.0224 28.9954 12.0425L29.0126 12.0597L29.0901 12.1373L31.4989 14.552L33.7298 16.7657L37.8669 20.9031C39.3829 22.419 39.3829 24.8768 37.8698 26.3957C36.7588 27.5069 35.1423 27.8026 33.7613 27.2829C33.7326 27.2715 33.7096 27.26 33.6838 27.2513C33.6723 27.2456 33.6579 27.2427 33.6465 27.2369C33.3565 27.1193 33.078 26.9614 32.8196 26.7719L34.1862 25.4051L34.2236 25.3678C34.7863 25.6607 35.461 25.6578 36.0237 25.3649C36.1931 25.276 36.3568 25.164 36.4975 25.0233C37.2526 24.2682 37.2526 23.0335 36.4975 22.2784Z" fill="#D81159"/>
<path d="M13.5147 24.9809C12.7596 25.736 12.7568 26.9678 13.5147 27.7257L21.993 36.1987C22.1853 36.9653 22.5787 37.6917 23.1759 38.2832C23.4458 38.5531 23.7415 38.7799 24.0573 38.9694C23.1903 39.0613 22.2973 38.8574 21.5394 38.3636V38.3693C21.3154 38.2257 21.1058 38.0563 20.9106 37.8611L12.1366 29.0981C10.6207 27.5821 10.6235 25.1272 12.1366 23.6084C13.0467 22.6925 14.3014 22.3279 15.4843 22.5174L15.5273 22.526C15.5474 22.5288 15.5647 22.5346 15.5848 22.5375C16.1532 22.6408 16.6987 22.8705 17.1811 23.2265L16.1762 24.2315C16.1619 24.2458 15.803 24.6219 15.7886 24.6363C15.2259 24.3435 14.5512 24.3406 13.9884 24.6335C13.8191 24.7224 13.6583 24.8373 13.5147 24.9809Z" fill="#73D2DE"/>
<path d="M25.0185 13.5098C24.2635 12.7547 23.0289 12.7547 22.2738 13.5098L13.7984 21.9971C13.0318 22.1894 12.3054 22.5828 11.7054 23.1829C11.4355 23.4528 11.2087 23.7486 11.022 24.0615C10.9043 22.9389 11.2804 21.776 12.1389 20.9175L20.9072 12.1374C22.4231 10.6214 24.8807 10.6214 26.3938 12.1345C27.6772 13.4179 27.8753 15.3675 26.9881 16.8576C26.9221 16.9696 26.8474 17.073 26.7699 17.1792L25.4033 15.824L25.3602 15.7809C25.4319 15.646 25.4865 15.4995 25.5239 15.3531C25.5267 15.3502 25.5239 15.3474 25.5267 15.3445C25.6387 14.8937 25.5842 14.4085 25.3659 13.9893C25.2798 13.817 25.1621 13.6534 25.0185 13.5098Z" fill="#FFBC42"/>
<path d="M13.94 25.4169L13.9831 25.3739C14.3678 25.5749 14.81 25.6381 15.2292 25.5634L15.232 25.5605C15.6053 25.4916 15.967 25.3136 16.257 25.0236L23.1907 18.0781L24.563 19.4505L23.9716 20.042L23.9745 20.0449L17.6322 26.3932C17.1356 26.8899 16.5384 27.2229 15.9067 27.3952L15.8665 27.4067C15.835 27.4153 15.8436 27.4124 15.835 27.4153C15.2665 27.5589 14.6722 27.5732 14.0951 27.4555L13.94 27.3005C13.4204 26.7807 13.4204 25.9366 13.94 25.4169Z" fill="#FFBC42"/>
<path d="M29.1019 37.8633C28.8348 38.1303 28.5392 38.3514 28.2233 38.5237C28.1487 38.5581 28.1613 38.553 28.1487 38.5581C27.4769 38.9084 26.7246 39.052 25.9896 38.983C25.1197 38.8998 24.2785 38.5237 23.6124 37.8575C23.0554 37.3005 22.6965 36.6085 22.5472 35.8907C22.3319 34.837 22.5616 33.7115 23.2305 32.8128L24.6115 34.1938L24.6345 34.2168C24.4938 34.4781 24.422 34.7738 24.4163 35.0667C24.4019 35.5807 24.5914 36.0975 24.9819 36.4879C25.737 37.2431 26.9715 37.2431 27.7267 36.4879L36.1619 28.0408C36.9485 27.8571 37.6979 27.458 38.3123 26.8435C38.5736 26.5823 38.7947 26.298 38.9784 25.9937C39.0789 27.0991 38.7056 28.2418 37.8586 29.0888L29.1019 37.8633Z" fill="#218380"/>
</svg>
