<svg width="30" height="30" viewBox="0 0 30 30" fill="none" xmlns="http://www.w3.org/2000/svg">
<path d="M0 15C0 6.71573 6.71573 0 15 0C23.2843 0 30 6.71573 30 15C30 23.2843 23.2843 30 15 30C6.71573 30 0 23.2843 0 15Z" fill="#FF0000"/>
<path fill-rule="evenodd" clip-rule="evenodd" d="M6 7L20.9555 9.46608L25 13.147L13.7996 26L6 7ZM8.38033 9.62937L13.7238 22.6463L14.9466 14.789L8.38033 9.62937ZM16.1263 15.0562L14.9036 22.9129L22.6431 14.0315L16.1263 15.0562ZM22.8503 12.8032L17.5004 13.6445L20.6722 10.8209L22.8503 12.8032ZM19.3528 10.3989L9.1449 8.71572L15.5712 13.7654L19.3528 10.3989Z" fill="white"/>
</svg>
