<svg width="30" height="30" viewBox="0 0 30 30" fill="none" xmlns="http://www.w3.org/2000/svg">
<path d="M0 15C0 6.71573 6.71573 0 15 0C23.2843 0 30 6.71573 30 15C30 23.2843 23.2843 30 15 30C6.71573 30 0 23.2843 0 15Z" fill="#5477D1"/>
<path d="M13 6.04164C8.99202 6.9511 6 10.5354 6 14.8186C6 19.1018 8.99202 22.6861 13 23.5956V25.6372C7.87976 24.6967 4 20.2108 4 14.8186C4 9.42648 7.87976 4.94051 13 4V6.04164Z" fill="white"/>
<path d="M26 14.8186C26 9.42648 22.1202 4.94051 17 4V6.04164C21.008 6.9511 24 10.5354 24 14.8186C24 19.1018 21.008 22.6861 17 23.5956V25.6372C22.1202 24.6967 26 20.2108 26 14.8186Z" fill="white"/>
<path d="M16 9C16 8.44772 15.5523 8 15 8C14.4477 8 14 8.44772 14 9V9.39874C12.3175 9.55394 11 10.9693 11 12.6923C11 14.5191 12.4809 16 14.3077 16H15.6923C16.4145 16 17 16.5855 17 17.3077C17 18.0299 16.4145 18.6154 15.6923 18.6154H13.8462C13.3788 18.6154 13 18.2365 13 17.7692H11C11 19.3411 12.2743 20.6154 13.8462 20.6154H14V21C14 21.5523 14.4477 22 15 22C15.5523 22 16 21.5523 16 21V20.6013C17.6825 20.4461 19 19.0307 19 17.3077C19 15.4809 17.5191 14 15.6923 14H14.3077C13.5855 14 13 13.4145 13 12.6923C13 11.9701 13.5855 11.3846 14.3077 11.3846H16.1538C16.6212 11.3846 17 11.7635 17 12.2308H19C19 10.6589 17.7257 9.38462 16.1538 9.38462H16V9Z" fill="white"/>
</svg>
