<svg width="30" height="30" viewBox="0 0 30 30" fill="none" xmlns="http://www.w3.org/2000/svg">
<path d="M0 15C0 6.71573 6.71573 0 15 0C23.2843 0 30 6.71573 30 15C30 23.2843 23.2843 30 15 30C6.71573 30 0 23.2843 0 15Z" fill="#6FA688"/>
<path fill-rule="evenodd" clip-rule="evenodd" d="M23 7H7V11H13V12.062C8.99202 12.3146 6 13.3102 6 14.5C6 15.6898 8.99202 16.6854 13 16.938V23H17V16.938C21.008 16.6854 24 15.6898 24 14.5C24 13.3102 21.008 12.3146 17 12.062V11H23V7ZM7.5 14.5C7.5 13.4606 9.33333 12.368 13 12.0756V15.5H17V12.0759C20.9384 12.3927 22.5 13.6339 22.5 14.5C22.5 15.322 20.0008 15.8061 17 15.9525C15.7082 16.0462 13.7951 15.9826 13 15.9391C9.99921 15.7559 7.5 15.1809 7.5 14.5Z" fill="white"/>
</svg>
