<svg width="25" height="24" viewBox="0 0 25 24" fill="none" xmlns="http://www.w3.org/2000/svg">
<path d="M20.1746 11.6479C20.1549 11.6577 20.1377 11.6651 20.118 11.675C19.9655 11.7537 19.8203 11.8546 19.6924 11.9825L13.7459 17.9391L12.5723 16.7655L12.7347 16.6032L12.7322 16.6007L18.5164 10.8064C19.2421 10.0806 20.2164 9.7608 21.1611 9.84442C21.2867 9.85672 21.417 9.88383 21.5425 9.91088L21.6901 10.0585C22.133 10.5014 22.1355 11.2272 21.6901 11.6725L21.6581 11.7045C21.2645 11.4929 20.802 11.4486 20.3813 11.5741C20.3542 11.5814 20.3247 11.5913 20.2952 11.6011L20.1746 11.6479Z" fill="#22262F"/>
<path d="M18.1345 10.4508L16.9609 11.6243L11.0096 5.69236C10.4732 5.15599 10.1583 4.48185 10.0648 3.78309H10.0697C10.018 3.39189 10.0352 2.99577 10.1189 2.61195L10.2198 2.51107C10.6651 2.06574 11.3909 2.0682 11.8337 2.51107C11.851 2.52829 11.8682 2.55043 11.8854 2.56766C11.7501 2.826 11.6886 3.11879 11.7009 3.40665C11.7009 3.43126 11.7058 3.45586 11.7058 3.48047L11.7132 3.54689C11.7132 3.55674 11.7156 3.56412 11.7156 3.57396L11.723 3.62563C11.7279 3.65024 11.7329 3.66992 11.7378 3.69452C11.7403 3.7019 11.7403 3.70682 11.7427 3.7142C11.7476 3.73881 11.755 3.76587 11.7624 3.79293C11.7648 3.80031 11.7648 3.80524 11.7673 3.81262C11.7747 3.83477 11.782 3.86182 11.7919 3.88643C11.7919 3.89135 11.7944 3.89381 11.7944 3.89873C11.814 3.95778 11.8386 4.01683 11.8682 4.07588C11.9469 4.23335 12.0502 4.38097 12.1806 4.51137L18.1345 10.4508Z" fill="#22262F"/>
<path d="M12.5539 21.4754L12.5194 21.4409C12.7704 20.9587 12.7728 20.3805 12.5218 19.8983C12.4456 19.7531 12.3472 19.6153 12.2266 19.4947L6.27032 13.548L7.44382 12.3744L13.3953 18.3162C13.5158 18.4368 13.6241 18.5598 13.7225 18.6927C14.0571 19.1454 14.2588 19.662 14.3351 20.191C14.3376 20.1984 14.3376 20.2083 14.34 20.2156C14.3425 20.2279 14.3425 20.2378 14.345 20.2501C14.372 20.4691 14.3794 20.6881 14.3622 20.907C14.3523 21.0546 14.3326 21.1973 14.3031 21.34L14.1678 21.4754C13.7225 21.9207 12.9992 21.9207 12.5539 21.4754Z" fill="#22262F"/>
<path d="M22.0516 9.66737L18.8827 6.51309L14.7617 2.3821C14.5969 1.72518 14.2598 1.1027 13.7456 0.588475C13.5242 0.367039 13.2806 0.177589 13.0199 0.0201232C13.7579 -0.0536886 14.5157 0.118539 15.1603 0.536806C15.1628 0.539267 15.1701 0.541727 15.1751 0.546648C15.1849 0.551569 15.1947 0.561411 15.2046 0.566331C15.2218 0.578633 15.2366 0.588475 15.2513 0.598317C15.2611 0.603236 15.271 0.61308 15.2809 0.617999C15.2956 0.627842 15.3128 0.640145 15.3276 0.649982C15.335 0.657366 15.3473 0.664744 15.3546 0.672128C15.3719 0.684431 15.3841 0.696734 15.4014 0.709037C15.4112 0.718874 15.4211 0.723799 15.4284 0.731177C15.4457 0.74348 15.458 0.755783 15.4752 0.768085C15.4826 0.775464 15.4924 0.780388 15.4998 0.787766C15.5146 0.802529 15.5318 0.814831 15.5465 0.829593C15.5539 0.832053 15.5613 0.839437 15.5687 0.846815C15.5859 0.864036 15.6056 0.878799 15.6228 0.896026L15.704 0.977215L17.7682 3.04641L19.6798 4.94338L23.2251 8.48879C24.5241 9.78787 24.5241 11.894 23.2275 13.1955C22.2754 14.1477 20.8903 14.4012 19.7069 13.9558C19.6823 13.946 19.6626 13.9362 19.6405 13.9287C19.6306 13.9238 19.6183 13.9213 19.6085 13.9164C19.36 13.8156 19.1214 13.6803 18.8999 13.5179L20.103 12.3147C20.5852 12.5657 21.1634 12.5632 21.6456 12.3123C21.7907 12.236 21.9309 12.14 22.0516 12.0195C22.6986 11.3724 22.6986 10.3144 22.0516 9.66737Z" fill="#22262F"/>
<path d="M2.35692 11.9829C1.70986 12.63 1.70741 13.6855 2.35692 14.335L9.62209 21.5957C9.78694 22.2526 10.124 22.8751 10.6357 23.382C10.8671 23.6132 11.1204 23.8076 11.3911 23.97C10.6481 24.0487 9.88291 23.874 9.23342 23.4508V23.4557C9.04149 23.3327 8.8619 23.1875 8.6946 23.0202L1.17599 15.5111C-0.123042 14.212 -0.120583 12.1084 1.17599 10.8068C1.95589 10.022 3.03103 9.70953 4.04467 9.87191L4.08157 9.87929C4.0988 9.88175 4.11356 9.88667 4.13078 9.88913C4.61791 9.97772 5.08537 10.1745 5.49869 10.4796L4.6376 11.3407C4.6253 11.353 4.31776 11.6753 4.30546 11.6877C3.82325 11.4367 3.24508 11.4343 2.76287 11.6852C2.61771 11.7615 2.47993 11.8599 2.35692 11.9829Z" fill="#22262F"/>
<path d="M12.2145 2.15362C11.5675 1.50654 10.5096 1.50654 9.86255 2.15362L2.59978 9.42653C1.94288 9.59137 1.32043 9.92848 0.806232 10.4427C0.574968 10.674 0.380605 10.9274 0.220687 11.1956C0.119815 10.2336 0.442113 9.2371 1.17774 8.50145L8.69144 0.977555C9.99047 -0.321535 12.0964 -0.321535 13.393 0.975096C14.4928 2.07489 14.6625 3.7455 13.9023 5.02244C13.8457 5.1184 13.7817 5.20697 13.7153 5.29801L12.5442 4.1367L12.5073 4.09979C12.5688 3.98416 12.6156 3.85868 12.6476 3.73319C12.65 3.73074 12.6476 3.72828 12.65 3.72582C12.746 3.33954 12.6992 2.92373 12.5122 2.56451C12.4384 2.41689 12.3375 2.27664 12.2145 2.15362Z" fill="#22262F"/>
<path d="M2.72164 12.357L2.75855 12.3201C3.08822 12.4924 3.46711 12.5465 3.82631 12.4825L3.82877 12.4801C4.1486 12.421 4.4586 12.2685 4.70709 12.02L10.6487 6.06827L11.8247 7.24432L11.3179 7.75119L11.3203 7.75365L5.88556 13.1936C5.45993 13.6192 4.94819 13.9046 4.40694 14.0522L4.37249 14.0621C4.34543 14.0695 4.35281 14.067 4.34543 14.0695C3.85829 14.1925 3.34901 14.2048 2.8545 14.1039L2.72164 13.9711C2.27633 13.5257 2.27633 12.8024 2.72164 12.357Z" fill="#22262F"/>
<path d="M15.7138 23.0231C15.485 23.2519 15.2316 23.4414 14.9609 23.589C14.897 23.6185 14.9078 23.6141 14.897 23.6185C14.3213 23.9187 13.6767 24.0417 13.0468 23.9826C12.3014 23.9113 11.5805 23.589 11.0097 23.0182C10.5325 22.5408 10.2249 21.9479 10.097 21.3328C9.91248 20.4298 10.1093 19.4654 10.6825 18.6952L11.8856 19.8984C11.765 20.1223 11.7035 20.3757 11.6986 20.6267C11.6863 21.0671 11.8487 21.5099 12.1833 21.8445C12.8303 22.4916 13.8883 22.4916 14.5354 21.8445L21.7637 14.606C22.4377 14.4486 23.0799 14.1066 23.6064 13.5801C23.8303 13.3562 24.0197 13.1126 24.1771 12.8518C24.2633 13.7991 23.9434 14.7783 23.2176 15.5041L15.7138 23.0231Z" fill="#22262F"/>
</svg>
