<svg width="19" height="20" viewBox="0 0 19 20" fill="none" xmlns="http://www.w3.org/2000/svg">
<path fill-rule="evenodd" clip-rule="evenodd" d="M9.97835 3.12177C8.57294 3.51529 6.9475 4.47028 5.48385 5.93394C4.02019 7.39759 3.0652 9.02303 2.67168 10.4284C2.26847 11.8685 2.49921 12.8488 3.00897 13.3586C3.35399 13.7036 3.89565 13.9175 4.67211 13.8993C5.45369 13.881 6.40786 13.6241 7.43297 13.1023C8.43567 12.592 9.47225 11.845 10.4336 10.8837C11.3949 9.92234 12.1419 8.88576 12.6522 7.88306C13.174 6.85795 13.4309 5.90378 13.4492 5.1222C13.4674 4.34574 13.2535 3.80408 12.9085 3.45906C12.3987 2.9493 11.4184 2.71856 9.97835 3.12177ZM15.3837 5.93426C15.2809 6.65007 15.0619 7.38962 14.7464 8.12542L16.3741 9.75307C16.5368 9.22828 16.621 8.73947 16.6312 8.30418C16.6493 7.52772 16.4355 6.98606 16.0904 6.64104L15.3837 5.93426ZM15.4858 11.6932L13.7545 9.96196C13.3981 10.5076 12.9893 11.0463 12.5319 11.5678L14.2962 13.3321C14.7586 12.7941 15.1563 12.242 15.4858 11.6932ZM12.882 14.7463L11.1177 12.982C10.5962 13.4394 10.0575 13.8482 9.51187 14.2046L11.2431 15.9359C11.7919 15.6064 12.344 15.2087 12.882 14.7463ZM9.30298 16.8241L7.67533 15.1965C6.93953 15.512 6.19998 15.731 5.48417 15.8338L6.19095 16.5405C6.53597 16.8856 7.07763 17.0994 7.85409 17.0813C8.28938 17.0711 8.77819 16.9869 9.30298 16.8241ZM9.43909 1.19585C11.1981 0.70333 13.0751 0.797252 14.3227 2.04485L17.5047 5.22683C18.3374 6.05959 18.6578 7.18979 18.6306 8.35098C18.6036 9.50706 18.2355 10.7564 17.6166 11.9723C17.0044 13.1751 16.1292 14.3805 15.0298 15.4799C13.9304 16.5793 12.725 17.4545 11.5222 18.0667C10.3063 18.6856 9.05697 19.0537 7.90089 19.0807C6.7397 19.1079 5.6095 18.7875 4.77674 17.9548L1.59476 14.7728C0.347162 13.5252 0.25324 11.6482 0.745756 9.88918C1.24797 8.09557 2.40909 6.18026 4.06963 4.51972C5.73017 2.85918 7.64548 1.69806 9.43909 1.19585Z" fill="#22262F"/>
</svg>
