<svg width="35" height="35" viewBox="0 0 35 35" fill="none" xmlns="http://www.w3.org/2000/svg">
<path d="M0.291626 17.5C0.291626 8.1802 7.84682 0.625 17.1666 0.625C26.4864 0.625 34.0416 8.1802 34.0416 17.5C34.0416 26.8198 26.4864 34.375 17.1666 34.375C7.84682 34.375 0.291626 26.8198 0.291626 17.5Z" fill="#FFC500"/>
<path d="M12.7971 15.7045L17.1666 11.335L21.5384 15.7067L24.0809 13.1643L17.1666 6.25L10.2546 13.162L12.7971 15.7045Z" fill="#272626"/>
<path d="M19.7451 17.4978H19.7463L17.1666 14.9193L15.2598 16.825L15.0404 17.0444L14.5893 17.4966L14.5848 17.5L14.5893 17.5034L17.1655 20.0808L19.7463 17.5011L19.7474 17.5L19.7451 17.4989V17.4978Z" fill="#272626"/>
<path d="M12.7971 19.2955L10.2513 21.8346L10.2546 21.838L17.1666 28.75L24.0809 21.8358V21.8346L21.5384 19.2921L17.1666 23.665L12.7971 19.2955Z" fill="#272626"/>
<path d="M5.91663 17.5L8.45913 20.0425L11.0016 17.5L8.45913 14.9575L5.91663 17.5Z" fill="#272626"/>
<path d="M23.3316 17.5L25.8741 20.0425L28.4166 17.5L25.8741 14.9575L23.3316 17.5Z" fill="#272626"/>
</svg>
