<svg width="35" height="35" viewBox="0 0 35 35" fill="none" xmlns="http://www.w3.org/2000/svg">
<g clip-path="url(#clip0)">
<path d="M0.625 17.5C0.625 8.1802 8.1802 0.625 17.5 0.625C26.8198 0.625 34.375 8.1802 34.375 17.5C34.375 26.8198 26.8198 34.375 17.5 34.375C8.1802 34.375 0.625 26.8198 0.625 17.5Z" fill="white"/>
<path fill-rule="evenodd" clip-rule="evenodd" d="M17.5 34.375C8.17973 34.375 0.625 26.8203 0.625 17.5C0.625 8.17973 8.17973 0.625 17.5 0.625C26.8203 0.625 34.375 8.17973 34.375 17.5C34.375 26.8203 26.8203 34.375 17.5 34.375ZM25.0821 15.4117C25.4133 13.2011 23.729 12.0125 21.4277 11.2193L22.1744 8.22402L20.3519 7.77051L19.6241 10.6867C19.1453 10.5665 18.6538 10.4547 18.1634 10.3429L18.8964 7.4077L17.0739 6.95312L16.3272 9.94738C15.9306 9.85668 15.5404 9.76809 15.1628 9.67316L15.1649 9.66367L12.6505 9.03613L12.1654 10.9831C12.1654 10.9831 13.5186 11.2932 13.4901 11.3121C14.2284 11.4967 14.3612 11.985 14.3391 12.3732L13.489 15.7851C13.5396 15.7977 13.605 15.8167 13.6789 15.8452L13.4859 15.7977L12.2941 20.5776C12.2034 20.8012 11.9745 21.1376 11.4577 21.01C11.4767 21.0364 10.133 20.6799 10.133 20.6799L9.22809 22.7661L11.6011 23.3577C12.042 23.4685 12.4744 23.5845 12.8995 23.6931L12.1454 26.7222L13.9668 27.1757L14.7135 24.1804C15.2113 24.3143 15.6944 24.4388 16.1669 24.5569L15.4223 27.5396L17.2448 27.9931L17.9989 24.9704C21.1081 25.5589 23.4453 25.3216 24.4293 22.5098C25.2224 20.2464 24.3903 18.9396 22.7545 18.0885C23.9463 17.8143 24.8427 17.0307 25.0821 15.4117ZM20.9161 21.2526C20.354 23.517 16.5413 22.2925 15.3052 21.9856L16.3071 17.9725C17.5432 18.2815 21.5057 18.8922 20.9161 21.2526ZM21.4804 15.379C20.9668 17.4388 17.7943 16.3915 16.7659 16.1352L17.673 12.4966C18.7013 12.7529 22.0162 13.2306 21.4804 15.379Z" fill="#FA6B1B"/>
</g>
<defs>
<clipPath id="clip0">
<path d="M0.625 17.5C0.625 8.1802 8.1802 0.625 17.5 0.625C26.8198 0.625 34.375 8.1802 34.375 17.5C34.375 26.8198 26.8198 34.375 17.5 34.375C8.1802 34.375 0.625 26.8198 0.625 17.5Z" fill="white"/>
</clipPath>
</defs>
</svg>
