<svg width="35" height="35" viewBox="0 0 35 35" fill="none" xmlns="http://www.w3.org/2000/svg">
<path d="M0.339355 17.5C0.339355 8.1802 7.89455 0.625 17.2144 0.625C26.5342 0.625 34.0894 8.1802 34.0894 17.5C34.0894 26.8198 26.5342 34.375 17.2144 34.375C7.89455 34.375 0.339355 26.8198 0.339355 17.5Z" fill="#272626"/>
<path d="M17.2144 6.25L20.0269 9.0625L12.9956 16.0937L10.1831 13.2812L17.2144 6.25Z" fill="#FFC500"/>
<path d="M8.77685 14.6875L11.5894 17.5L8.77685 20.3125L5.96436 17.5L8.77685 14.6875Z" fill="#FFC500"/>
<path d="M21.4331 10.4688L24.2456 13.2812L17.2144 20.3125L14.4019 17.5L21.4331 10.4688Z" fill="#FFC500"/>
<path d="M25.6519 14.6875L28.4644 17.5L21.4331 24.5312L18.6206 21.7187L25.6519 14.6875Z" fill="#FFC500"/>
<path d="M20.0269 25.9375L17.2144 28.75L10.1831 21.7188L12.9956 18.9063L20.0269 25.9375Z" fill="#FFC500"/>
</svg>
