<svg width="20" height="20" viewBox="0 0 20 20" fill="none" xmlns="http://www.w3.org/2000/svg">
<path d="M0 10C0 4.47715 4.47715 0 10 0C15.5228 0 20 4.47715 20 10C20 15.5228 15.5228 20 10 20C4.47715 20 0 15.5228 0 10Z" fill="#1652F0"/>
<path d="M10.3553 15.5286C9.2658 15.5286 8.27817 15.2945 7.39235 14.8261C6.51671 14.3476 5.82435 13.6908 5.31526 12.8559C4.81635 12.0108 4.56689 11.0588 4.56689 9.99992C4.56689 8.94101 4.81635 7.9941 5.31526 7.15919C5.82435 6.3141 6.51671 5.65737 7.39235 5.18901C8.27817 4.71046 9.2709 4.47119 10.3705 4.47119C11.2971 4.47119 12.132 4.6341 12.8753 4.95992C13.6287 5.28574 14.26 5.7541 14.7691 6.36501L13.1807 7.83119C12.4578 6.99628 11.5618 6.57883 10.4927 6.57883C9.83089 6.57883 9.24035 6.72646 8.72108 7.02174C8.2018 7.30683 7.79453 7.70901 7.49926 8.22828C7.21417 8.74756 7.07162 9.3381 7.07162 9.99992C7.07162 10.6617 7.21417 11.2523 7.49926 11.7716C7.79453 12.2908 8.2018 12.6981 8.72108 12.9934C9.24035 13.2785 9.83089 13.421 10.4927 13.421C11.5618 13.421 12.4578 12.9985 13.1807 12.1534L14.7691 13.6196C14.26 14.2406 13.6287 14.7141 12.8753 15.0399C12.1218 15.3657 11.2818 15.5286 10.3553 15.5286Z" fill="white"/>
</svg>
