<svg width="20" height="20" viewBox="0 0 20 20" fill="none" xmlns="http://www.w3.org/2000/svg">
<path d="M0 10C0 4.47715 4.47715 0 10 0C15.5228 0 20 4.47715 20 10C20 15.5228 15.5228 20 10 20C4.47715 20 0 15.5228 0 10Z" fill="#6FA688"/>
<path fill-rule="evenodd" clip-rule="evenodd" d="M15.3333 4.6665H4.66667V7.33317H8.66667V8.04114C5.99468 8.20955 4 8.87333 4 9.6665C4 10.4597 5.99468 11.1235 8.66667 11.2919V15.3332H11.3333V11.2919C14.0053 11.1235 16 10.4597 16 9.6665C16 8.87333 14.0053 8.20955 11.3333 8.04114V7.33317H15.3333V4.6665ZM5 9.6665C5 8.97359 6.22222 8.2452 8.66667 8.05023V10.3332H11.3333V8.05041C13.959 8.26164 15 9.08909 15 9.6665C15 10.2145 13.3339 10.5373 11.3333 10.6348C10.4722 10.6973 9.19673 10.6549 8.66667 10.6259C6.66614 10.5038 5 10.1205 5 9.6665Z" fill="white"/>
</svg>
