<svg width="35" height="35" viewBox="0 0 35 35" fill="none" xmlns="http://www.w3.org/2000/svg">
<path d="M0.625 17.5C0.625 8.1802 8.1802 0.625 17.5 0.625C26.8198 0.625 34.375 8.1802 34.375 17.5C34.375 26.8198 26.8198 34.375 17.5 34.375C8.1802 34.375 0.625 26.8198 0.625 17.5Z" fill="#FF0000"/>
<path fill-rule="evenodd" clip-rule="evenodd" d="M7.375 8.5L24.1999 11.2743L28.75 15.4154L16.1495 29.875L7.375 8.5ZM10.0529 11.458L16.0643 26.1021L17.4399 17.2627L10.0529 11.458ZM18.767 17.5633L17.3915 26.402L26.0985 16.4104L18.767 17.5633ZM26.3315 15.0287L20.3129 15.9751L23.8812 12.7985L26.3315 15.0287ZM22.3969 12.3238L10.913 10.4302L18.1426 16.1111L22.3969 12.3238Z" fill="white"/>
</svg>
