<svg width="35" height="35" viewBox="0 0 35 35" fill="none" xmlns="http://www.w3.org/2000/svg">
<path d="M0.291626 17.5C0.291626 8.1802 7.84682 0.625 17.1666 0.625C26.4864 0.625 34.0416 8.1802 34.0416 17.5C34.0416 26.8198 26.4864 34.375 17.1666 34.375C7.84682 34.375 0.291626 26.8198 0.291626 17.5Z" fill="#5477D1"/>
<path d="M14.9166 7.42185C10.4077 8.44499 7.04163 12.4774 7.04163 17.296C7.04163 22.1145 10.4077 26.1469 14.9166 27.1701V29.4669C9.15636 28.4088 4.79163 23.3621 4.79163 17.296C4.79163 11.2298 9.15636 6.18308 14.9166 5.125V7.42185Z" fill="white"/>
<path d="M29.5416 17.296C29.5416 11.2298 25.1769 6.18308 19.4166 5.125V7.42185C23.9256 8.44499 27.2916 12.4774 27.2916 17.296C27.2916 22.1145 23.9256 26.1469 19.4166 27.1701V29.4669C25.1769 28.4088 29.5416 23.3621 29.5416 17.296Z" fill="white"/>
<path d="M18.2916 10.75C18.2916 10.1287 17.7879 9.625 17.1666 9.625C16.5453 9.625 16.0416 10.1287 16.0416 10.75V11.1986C14.1488 11.3732 12.6666 12.9654 12.6666 14.9038C12.6666 16.959 14.3326 18.625 16.3878 18.625H17.9455C18.758 18.625 19.4166 19.2837 19.4166 20.0962C19.4166 20.9086 18.758 21.5673 17.9455 21.5673H15.8685C15.3428 21.5673 14.9166 21.1411 14.9166 20.6154H12.6666C12.6666 22.3838 14.1002 23.8173 15.8685 23.8173H16.0416V24.25C16.0416 24.8713 16.5453 25.375 17.1666 25.375C17.7879 25.375 18.2916 24.8713 18.2916 24.25V23.8014C20.1845 23.6268 21.6666 22.0346 21.6666 20.0962C21.6666 18.041 20.0006 16.375 17.9455 16.375H16.3878C15.5753 16.375 14.9166 15.7163 14.9166 14.9038C14.9166 14.0914 15.5753 13.4327 16.3878 13.4327H18.4647C18.9904 13.4327 19.4166 13.8589 19.4166 14.3846H21.6666C21.6666 12.6162 20.2331 11.1827 18.4647 11.1827H18.2916V10.75Z" fill="white"/>
</svg>
