<svg width="19" height="20" viewBox="0 0 19 20" fill="none" xmlns="http://www.w3.org/2000/svg">
<path fill-rule="evenodd" clip-rule="evenodd" d="M10.1785 3.12177C8.77313 3.51529 7.1477 4.47028 5.68404 5.93394C4.22038 7.39759 3.2654 9.02303 2.87188 10.4284C2.46867 11.8685 2.69941 12.8488 3.20917 13.3586C3.55419 13.7036 4.09584 13.9175 4.87231 13.8993C5.65389 13.881 6.60806 13.6241 7.63316 13.1023C8.63587 12.592 9.67244 11.845 10.6338 10.8837C11.5951 9.92234 12.3421 8.88576 12.8524 7.88306C13.3742 6.85795 13.6311 5.90378 13.6494 5.1222C13.6676 4.34574 13.4537 3.80408 13.1087 3.45906C12.5989 2.9493 11.6186 2.71856 10.1785 3.12177ZM15.5839 5.93426C15.4811 6.65007 15.2621 7.38962 14.9466 8.12542L16.5742 9.75307C16.737 9.22828 16.8212 8.73947 16.8314 8.30418C16.8495 7.52772 16.6357 6.98606 16.2906 6.64104L15.5839 5.93426ZM15.686 11.6932L13.9547 9.96196C13.5983 10.5076 13.1895 11.0463 12.7321 11.5678L14.4964 13.3321C14.9588 12.7941 15.3565 12.242 15.686 11.6932ZM13.0822 14.7463L11.3179 12.982C10.7964 13.4394 10.2577 13.8482 9.71207 14.2046L11.4433 15.9359C11.9921 15.6064 12.5442 15.2087 13.0822 14.7463ZM9.50318 16.8241L7.87553 15.1965C7.13973 15.512 6.40017 15.731 5.68437 15.8338L6.39115 16.5405C6.73617 16.8856 7.27782 17.0994 8.05429 17.0813C8.48957 17.0711 8.97839 16.9869 9.50318 16.8241ZM9.63929 1.19585C11.3983 0.70333 13.2753 0.797252 14.5229 2.04485L17.7049 5.22683C18.5376 6.05959 18.858 7.18979 18.8308 8.35098C18.8038 9.50706 18.4357 10.7564 17.8168 11.9723C17.2046 13.1751 16.3294 14.3805 15.23 15.4799C14.1306 16.5793 12.9252 17.4545 11.7224 18.0667C10.5065 18.6856 9.25716 19.0537 8.10108 19.0807C6.93989 19.1079 5.8097 18.7875 4.97693 17.9548L1.79495 14.7728C0.547357 13.5252 0.453436 11.6482 0.945951 9.88918C1.44816 8.09557 2.60929 6.18026 4.26983 4.51972C5.93037 2.85918 7.84567 1.69806 9.63929 1.19585Z" fill="white"/>
</svg>
