<svg width="116" height="37" viewBox="0 0 116 37" fill="none" xmlns="http://www.w3.org/2000/svg">
<path d="M30.1003 17.9579C30.0707 17.9731 30.0446 17.9844 30.015 17.9996C29.7851 18.1211 29.5664 18.2765 29.3735 18.4738L20.4113 27.6594L18.6426 25.8496L18.8873 25.5992L18.8836 25.5954L27.6011 16.6603C28.6949 15.541 30.1634 15.0478 31.5872 15.1768C31.7763 15.1957 31.9728 15.2376 32.1619 15.2793L32.3844 15.5069C33.0519 16.1898 33.0556 17.3091 32.3844 17.9958L32.3362 18.0451C31.7429 17.7189 31.0458 17.6506 30.4118 17.844C30.371 17.8554 30.3265 17.8706 30.2821 17.8857L30.282 17.8858L30.1003 17.9579Z" fill="#218380"/>
<path d="M27.0259 16.1102L25.2572 17.92L16.2876 8.77243C15.4793 7.94531 15.0047 6.90573 14.8638 5.82821H14.8712C14.7933 5.22494 14.8192 4.6141 14.9453 4.02222L15.0974 3.86666C15.7685 3.17992 16.8623 3.18371 17.5298 3.86666C17.5558 3.89322 17.5817 3.92736 17.6076 3.95392C17.4037 4.3523 17.311 4.8038 17.3296 5.2477C17.3296 5.28565 17.337 5.32359 17.337 5.36153L17.3481 5.46397C17.3481 5.47915 17.3518 5.49053 17.3518 5.5057L17.3629 5.58538C17.3703 5.62333 17.3778 5.65368 17.3852 5.69162C17.3889 5.703 17.3889 5.71059 17.3926 5.72197C17.4 5.75991 17.4111 5.80164 17.4223 5.84338V5.84339C17.426 5.85476 17.426 5.86236 17.4297 5.87373C17.4408 5.90789 17.4519 5.94961 17.4668 5.98756C17.4668 5.99515 17.4705 5.99894 17.4705 6.00653C17.5001 6.09758 17.5372 6.18864 17.5817 6.27971C17.7003 6.52253 17.8561 6.75017 18.0526 6.95126L27.0259 16.1102Z" fill="#D81159"/>
<path d="M18.6127 33.1115L18.5608 33.0584C18.9391 32.3148 18.9428 31.4231 18.5645 30.6795C18.4496 30.4557 18.3012 30.2432 18.1196 30.0573L9.69132 21.4485L9.14258 20.8869L10.9112 19.0771L19.8809 28.2399C20.0626 28.4258 20.2257 28.6156 20.3741 28.8204C20.8784 29.5185 21.1824 30.3152 21.2974 31.131C21.3011 31.1424 21.3011 31.1575 21.3048 31.1689C21.3085 31.1879 21.3085 31.2031 21.3122 31.2221C21.3529 31.5597 21.364 31.8975 21.3381 32.2351C21.3233 32.4627 21.2936 32.6828 21.2491 32.9028L21.0452 33.1115C20.3741 33.7982 19.2839 33.7982 18.6127 33.1115Z" fill="#73D2DE"/>
<path d="M32.9294 14.9038L28.1534 10.0397L21.9426 3.66941C21.6942 2.65639 21.1862 1.69648 20.4112 0.903512C20.0775 0.562043 19.7104 0.269897 19.3174 0.027075C20.4298 -0.0867479 21.5718 0.178839 22.5432 0.823835C22.547 0.82763 22.5582 0.831424 22.5656 0.839012C22.5804 0.846601 22.5952 0.861777 22.61 0.869365C22.636 0.888336 22.6583 0.903512 22.6805 0.918689C22.6953 0.926276 22.7101 0.941455 22.725 0.94904C22.7472 0.964219 22.7732 0.983191 22.7954 0.998361C22.8066 1.00975 22.8251 1.02112 22.8362 1.03251C22.8622 1.05148 22.8807 1.07046 22.9067 1.08943C22.9215 1.1046 22.9363 1.11219 22.9474 1.12357C22.9735 1.14254 22.992 1.16151 23.0179 1.18048C23.029 1.19186 23.0438 1.19946 23.055 1.21083C23.0773 1.2336 23.1032 1.25257 23.1254 1.27533C23.1365 1.27913 23.1477 1.29051 23.1588 1.30189C23.1848 1.32845 23.2144 1.35121 23.2404 1.37778L23.2626 1.40054L23.3627 1.50298L26.4738 4.69382L29.3549 7.61907L34.6981 13.0863C36.6559 15.0896 36.6559 18.3374 34.7018 20.3444C33.2668 21.8128 31.1792 22.2036 29.3957 21.5169C29.3586 21.5017 29.3289 21.4865 29.2956 21.4751C29.2807 21.4675 29.2621 21.4637 29.2473 21.4561C28.8728 21.3006 28.5132 21.0919 28.1795 20.8415L29.9444 19.0355L29.9926 18.9862C30.7194 19.3732 31.5908 19.3694 32.3175 18.9824C32.5363 18.8648 32.7476 18.7168 32.9294 18.5309C33.9046 17.5331 33.9046 15.9016 32.9294 14.9038Z" fill="#D81159"/>
<path d="M3.24681 18.4744C2.2716 19.4722 2.2679 21.0999 3.24681 22.1015L14.1964 33.2979C14.4449 34.3109 14.9529 35.2708 15.7241 36.0524C16.0728 36.409 16.4547 36.7088 16.8625 36.9592C15.7428 37.0806 14.5895 36.8112 13.6107 36.1586V36.1662C13.3214 35.9765 13.0507 35.7526 12.7986 35.4947L1.46697 23.915C-0.490844 21.9118 -0.487137 18.6678 1.46697 16.6607C2.6424 15.4505 4.26279 14.9686 5.79049 15.219L5.8461 15.2304C5.87206 15.2342 5.89431 15.2418 5.92026 15.2456C6.65444 15.3822 7.35896 15.6857 7.9819 16.1561L6.68411 17.4841C6.66557 17.503 6.20207 18 6.18353 18.0191C5.45677 17.6321 4.58539 17.6283 3.85862 18.0153C3.63985 18.1329 3.43221 18.2847 3.24681 18.4744Z" fill="#73D2DE"/>
<path d="M18.1056 3.31651C17.1304 2.31867 15.536 2.31867 14.5608 3.31651L3.61478 14.5318C2.62474 14.786 1.68663 15.3059 0.911657 16.0988C0.563108 16.4555 0.270177 16.8463 0.0291577 17.2599C-0.12287 15.7763 0.362877 14.2397 1.47156 13.1053L12.7958 1.50294C14.7536 -0.500347 17.9276 -0.500347 19.8817 1.49915C21.5392 3.19511 21.7951 5.7713 20.6493 7.74044C20.564 7.88841 20.4676 8.02499 20.3675 8.16537L18.6025 6.37456L18.5468 6.31765C18.6395 6.13933 18.71 5.94583 18.7582 5.75232C18.7619 5.74853 18.7582 5.74474 18.7619 5.74095C18.9066 5.14528 18.8361 4.50407 18.5542 3.95013C18.443 3.72249 18.291 3.50622 18.1056 3.31651Z" fill="#FFBC42"/>
<path d="M3.79535 19.0507L3.85098 18.9938C4.34784 19.2594 4.91887 19.3429 5.46024 19.2442L5.46395 19.2404C5.94599 19.1494 6.41319 18.9142 6.7877 18.531L15.7425 9.35303L17.5149 11.1666L16.7511 11.9482L16.7548 11.952L8.56382 20.3407C7.92234 20.9971 7.15108 21.4372 6.33533 21.6649L6.28341 21.68C6.24263 21.6914 6.25375 21.6876 6.24263 21.6914C5.50844 21.8811 4.74089 21.9001 3.99559 21.7445L3.79535 21.5397C3.12421 20.8529 3.12421 19.7374 3.79535 19.0507Z" fill="#FFBC42"/>
<path d="M23.3778 35.4983C23.033 35.8511 22.6511 36.1433 22.2432 36.371C22.1468 36.4165 22.1631 36.4097 22.1468 36.4165C21.2792 36.8793 20.3076 37.0691 19.3584 36.978C18.2349 36.868 17.1484 36.371 16.2882 35.4907C15.5689 34.7546 15.1053 33.8403 14.9125 32.8918C14.6345 31.4993 14.9311 30.0121 15.795 28.8245L17.5786 30.6494L17.6083 30.6798C17.4265 31.025 17.3338 31.4158 17.3264 31.8029C17.3079 32.482 17.5526 33.1649 18.0569 33.6809C19.0321 34.6788 20.6265 34.6788 21.6018 33.6809L32.4958 22.5186C33.5118 22.2758 34.4796 21.7485 35.2731 20.9365C35.6105 20.5913 35.8961 20.2157 36.1333 19.8135C36.2631 21.2742 35.7811 22.7843 34.6872 23.9035L23.3778 35.4983Z" fill="#218380"/>
<path d="M54.6394 23.0785C55.4019 23.0785 56.1046 22.9096 56.7475 22.5719C57.4054 22.2341 57.996 21.7352 58.5192 21.075L61.0534 23.6312C60.3208 24.5676 59.3565 25.3199 58.1604 25.8879C56.9792 26.4559 55.7607 26.7399 54.5048 26.7399C53.3237 26.7399 52.2098 26.525 51.1632 26.0952C50.1315 25.6653 49.2419 25.0819 48.4944 24.345C47.7469 23.6081 47.1563 22.7331 46.7226 21.7198C46.2891 20.7066 46.0723 19.6166 46.0723 18.4499C46.0723 17.2831 46.2891 16.1931 46.7226 15.1799C47.1563 14.1513 47.7469 13.2686 48.4944 12.5316C49.2569 11.7948 50.154 11.2114 51.1857 10.7815C52.2173 10.3517 53.3237 10.1367 54.5048 10.1367C55.1477 10.1367 55.7906 10.2135 56.4336 10.367C57.0765 10.5206 57.6894 10.7355 58.2725 11.0118C58.8557 11.2728 59.3939 11.6028 59.8873 12.002C60.3806 12.3859 60.8068 12.8157 61.1656 13.2916L58.5641 15.9168C58.0109 15.2106 57.3904 14.681 56.7026 14.3278C56.0298 13.9594 55.2972 13.7752 54.5048 13.7752C53.8769 13.7752 53.2863 13.898 52.733 14.1436C52.1949 14.3739 51.7239 14.6963 51.3202 15.1108C50.9314 15.5253 50.6175 16.0243 50.3783 16.6076C50.154 17.1756 50.0418 17.7897 50.0418 18.4499C50.0418 19.11 50.154 19.7241 50.3783 20.2921C50.6175 20.8448 50.9389 21.3284 51.3426 21.7429C51.7612 22.1574 52.2472 22.4874 52.8004 22.7331C53.3685 22.9633 53.9815 23.0785 54.6394 23.0785Z" fill="#FAF9F7"/>
<path d="M105.054 25.1637L106.769 22.6739C107.512 23.1308 108.188 23.4658 108.797 23.679C109.406 23.877 110.006 23.9759 110.601 23.9759C111.195 23.9759 111.663 23.8921 112.005 23.7246C112.361 23.5419 112.539 23.3059 112.539 23.0165C112.539 22.7881 112.443 22.6054 112.25 22.4684C112.056 22.316 111.752 22.2095 111.336 22.1485L108.997 21.783C107.838 21.6003 106.947 21.2044 106.323 20.5952C105.7 19.9709 105.388 19.1638 105.388 18.174C105.388 16.9557 105.841 15.9963 106.747 15.2958C107.653 14.5953 108.892 14.2451 110.467 14.2451C111.314 14.2451 112.16 14.3745 113.007 14.6334C113.868 14.8771 114.663 15.235 115.391 15.707L113.675 18.0826C113.036 17.7019 112.427 17.4278 111.848 17.2602C111.269 17.0776 110.69 16.9862 110.111 16.9862C109.65 16.9862 109.279 17.07 108.997 17.2374C108.714 17.3897 108.573 17.5953 108.573 17.8542C108.573 18.0978 108.677 18.2958 108.885 18.448C109.093 18.5851 109.45 18.6918 109.955 18.7679L112.294 19.1334C113.453 19.3009 114.344 19.6968 114.967 20.3212C115.606 20.9303 115.926 21.7069 115.926 22.6511C115.926 23.2297 115.792 23.7703 115.524 24.2729C115.257 24.7754 114.886 25.2094 114.411 25.5749C113.95 25.9404 113.393 26.2297 112.739 26.4429C112.086 26.6409 111.38 26.7398 110.623 26.7398C109.509 26.7398 108.47 26.6104 107.504 26.3515C106.553 26.0774 105.737 25.6814 105.054 25.1637Z" fill="#FAF9F7"/>
<path d="M92.7939 26.7668V14.1724H96.4031V15.2501C96.8332 14.9151 97.3165 14.6562 97.8513 14.4735C98.4006 14.2908 98.9725 14.1994 99.566 14.1994C100.947 14.1994 102.077 14.6562 102.953 15.5699C103.829 16.4836 104.267 17.6485 104.267 19.0648V26.7668H100.658V19.5673C100.658 18.9125 100.458 18.3871 100.057 17.9912C99.6699 17.5801 99.1577 17.3744 98.519 17.3744C98.0591 17.3744 97.6508 17.4582 97.2939 17.6258C96.938 17.7932 96.6407 18.0292 96.4031 18.3338V26.7668H92.7939Z" fill="#FAF9F7"/>
<path d="M89.2132 13.3086C88.6637 13.3086 88.1959 13.1106 87.8097 12.7147C87.4235 12.3187 87.2305 11.8391 87.2305 11.2756C87.2305 10.7122 87.4235 10.2325 87.8097 9.83659C88.1959 9.4406 88.6637 9.24268 89.2132 9.24268C89.7628 9.24268 90.2306 9.4406 90.6167 9.83659C91.0034 10.2325 91.1958 10.7122 91.1958 11.2756C91.1958 11.8391 91.0034 12.3187 90.6167 12.7147C90.2306 13.1106 89.7628 13.3086 89.2132 13.3086ZM91.0178 14.1724V26.7669H87.4087V14.1724H91.0178Z" fill="#FAF9F7"/>
<path d="M78.8917 26.7173C77.6441 26.7173 76.6193 26.3671 75.8173 25.6666C75.0153 24.9661 74.6143 24.0676 74.6143 22.9711C74.6143 21.829 75.0375 20.9381 75.8841 20.2986C76.7455 19.6591 77.9411 19.3392 79.4709 19.3392C79.9314 19.3392 80.3843 19.3697 80.8299 19.4306C81.2755 19.4915 81.7137 19.5753 82.1443 19.6819V19.088C82.1443 18.4788 81.9513 18.0296 81.5651 17.7402C81.1938 17.4357 80.6369 17.2834 79.8942 17.2834C79.4338 17.2834 78.9139 17.3596 78.3347 17.5119C77.7555 17.6641 77.0871 17.9078 76.3297 18.2428L75.0375 15.5246C75.9881 15.083 76.9164 14.7555 77.8223 14.5423C78.7432 14.3139 79.6491 14.1997 80.5403 14.1997C82.174 14.1997 83.4439 14.6033 84.3498 15.4103C85.2559 16.2022 85.7089 17.3215 85.7089 18.7682V26.7671H82.1443V25.7808C81.669 26.1157 81.1641 26.3594 80.6294 26.5117C80.1096 26.6487 79.5303 26.7173 78.8917 26.7173ZM78.0451 22.9027C78.0451 23.2833 78.2085 23.5803 78.5352 23.7934C78.862 24.0066 79.315 24.1133 79.8942 24.1133C80.3249 24.1133 80.7259 24.0676 81.0972 23.9762C81.4834 23.8848 81.8325 23.7402 82.1443 23.5422V21.9889C81.8027 21.8976 81.4537 21.829 81.0972 21.7833C80.7408 21.7376 80.3769 21.7149 80.0056 21.7149C79.3818 21.7149 78.8991 21.8214 78.5575 22.0346C78.2159 22.2326 78.0451 22.5219 78.0451 22.9027Z" fill="#FAF9F7"/>
<path d="M61.9531 26.7669V10.7774L65.5622 10.1367V15.5057C65.993 15.1707 66.4757 14.9118 67.0103 14.7291C67.5599 14.5463 68.1317 14.455 68.7258 14.455C70.107 14.455 71.2358 14.9118 72.1121 15.8255C72.9884 16.7392 73.4265 17.9041 73.4265 19.3204V26.7669H69.8175V19.8229C69.8175 19.168 69.6169 18.6427 69.2159 18.2467C68.8297 17.8356 68.3173 17.63 67.6787 17.63C67.2183 17.63 66.8099 17.7138 66.4534 17.8813C66.097 18.0488 65.7999 18.2849 65.5622 18.5894V26.7669H61.9531Z" fill="#FAF9F7"/>
</svg>
