<svg width="409" height="80" viewBox="0 0 409 80" fill="none" xmlns="http://www.w3.org/2000/svg">
<path d="M121.57 21.875V56H117.117V21.875H121.57ZM132.539 21.875V25.5781H106.172V21.875H132.539Z" fill="#5B7FFF"/>
<path d="M150.586 21.875V56H146.133V21.875H150.586ZM161.555 21.875V25.5781H135.188V21.875H161.555Z" fill="#5B7FFF"/>
<path d="M171.469 21.875V56H166.945V21.875H171.469Z" fill="#5B7FFF"/>
<path d="M192.305 21.875V56H187.852V21.875H192.305ZM203.273 21.875V25.5781H176.906V21.875H203.273Z" fill="#5B7FFF"/>
<path d="M231.938 24.8984L220.641 56H216.023L229.031 21.875H232.008L231.938 24.8984ZM241.406 56L230.086 24.8984L230.016 21.875H232.992L246.047 56H241.406ZM240.82 43.3672V47.0703H221.648V43.3672H240.82Z" fill="#5B7FFF"/>
<path d="M254.297 36.0547V56H249.961V30.6406H254.062L254.297 36.0547ZM253.266 42.3594L251.461 42.2891C251.477 40.5547 251.734 38.9531 252.234 37.4844C252.734 36 253.438 34.7109 254.344 33.6172C255.25 32.5234 256.328 31.6797 257.578 31.0859C258.844 30.4766 260.242 30.1719 261.773 30.1719C263.023 30.1719 264.148 30.3438 265.148 30.6875C266.148 31.0156 267 31.5469 267.703 32.2812C268.422 33.0156 268.969 33.9688 269.344 35.1406C269.719 36.2969 269.906 37.7109 269.906 39.3828V56H265.547V39.3359C265.547 38.0078 265.352 36.9453 264.961 36.1484C264.57 35.3359 264 34.75 263.25 34.3906C262.5 34.0156 261.578 33.8281 260.484 33.8281C259.406 33.8281 258.422 34.0547 257.531 34.5078C256.656 34.9609 255.898 35.5859 255.258 36.3828C254.633 37.1797 254.141 38.0938 253.781 39.125C253.438 40.1406 253.266 41.2188 253.266 42.3594Z" fill="#5B7FFF"/>
<path d="M291.445 51.6641V38.6094C291.445 37.6094 291.242 36.7422 290.836 36.0078C290.445 35.2578 289.852 34.6797 289.055 34.2734C288.258 33.8672 287.273 33.6641 286.102 33.6641C285.008 33.6641 284.047 33.8516 283.219 34.2266C282.406 34.6016 281.766 35.0938 281.297 35.7031C280.844 36.3125 280.617 36.9688 280.617 37.6719H276.281C276.281 36.7656 276.516 35.8672 276.984 34.9766C277.453 34.0859 278.125 33.2812 279 32.5625C279.891 31.8281 280.953 31.25 282.188 30.8281C283.438 30.3906 284.828 30.1719 286.359 30.1719C288.203 30.1719 289.828 30.4844 291.234 31.1094C292.656 31.7344 293.766 32.6797 294.562 33.9453C295.375 35.1953 295.781 36.7656 295.781 38.6562V50.4688C295.781 51.3125 295.852 52.2109 295.992 53.1641C296.148 54.1172 296.375 54.9375 296.672 55.625V56H292.148C291.93 55.5 291.758 54.8359 291.633 54.0078C291.508 53.1641 291.445 52.3828 291.445 51.6641ZM292.195 40.625L292.242 43.6719H287.859C286.625 43.6719 285.523 43.7734 284.555 43.9766C283.586 44.1641 282.773 44.4531 282.117 44.8438C281.461 45.2344 280.961 45.7266 280.617 46.3203C280.273 46.8984 280.102 47.5781 280.102 48.3594C280.102 49.1562 280.281 49.8828 280.641 50.5391C281 51.1953 281.539 51.7188 282.258 52.1094C282.992 52.4844 283.891 52.6719 284.953 52.6719C286.281 52.6719 287.453 52.3906 288.469 51.8281C289.484 51.2656 290.289 50.5781 290.883 49.7656C291.492 48.9531 291.82 48.1641 291.867 47.3984L293.719 49.4844C293.609 50.1406 293.312 50.8672 292.828 51.6641C292.344 52.4609 291.695 53.2266 290.883 53.9609C290.086 54.6797 289.133 55.2812 288.023 55.7656C286.93 56.2344 285.695 56.4688 284.32 56.4688C282.602 56.4688 281.094 56.1328 279.797 55.4609C278.516 54.7891 277.516 53.8906 276.797 52.7656C276.094 51.625 275.742 50.3516 275.742 48.9453C275.742 47.5859 276.008 46.3906 276.539 45.3594C277.07 44.3125 277.836 43.4453 278.836 42.7578C279.836 42.0547 281.039 41.5234 282.445 41.1641C283.852 40.8047 285.422 40.625 287.156 40.625H292.195Z" fill="#5B7FFF"/>
<path d="M307.312 20V56H302.953V20H307.312Z" fill="#5B7FFF"/>
<path d="M321.398 53.375L328.453 30.6406H333.094L322.922 59.9141C322.688 60.5391 322.375 61.2109 321.984 61.9297C321.609 62.6641 321.125 63.3594 320.531 64.0156C319.938 64.6719 319.219 65.2031 318.375 65.6094C317.547 66.0312 316.555 66.2422 315.398 66.2422C315.055 66.2422 314.617 66.1953 314.086 66.1016C313.555 66.0078 313.18 65.9297 312.961 65.8672L312.938 62.3516C313.062 62.3672 313.258 62.3828 313.523 62.3984C313.805 62.4297 314 62.4453 314.109 62.4453C315.094 62.4453 315.93 62.3125 316.617 62.0469C317.305 61.7969 317.883 61.3672 318.352 60.7578C318.836 60.1641 319.25 59.3438 319.594 58.2969L321.398 53.375ZM316.219 30.6406L322.805 50.3281L323.93 54.8984L320.812 56.4922L311.484 30.6406H316.219Z" fill="#5B7FFF"/>
<path d="M347.625 30.6406V33.9688H333.914V30.6406H347.625ZM338.555 24.4766H342.891V49.7188C342.891 50.5781 343.023 51.2266 343.289 51.6641C343.555 52.1016 343.898 52.3906 344.32 52.5312C344.742 52.6719 345.195 52.7422 345.68 52.7422C346.039 52.7422 346.414 52.7109 346.805 52.6484C347.211 52.5703 347.516 52.5078 347.719 52.4609L347.742 56C347.398 56.1094 346.945 56.2109 346.383 56.3047C345.836 56.4141 345.172 56.4688 344.391 56.4688C343.328 56.4688 342.352 56.2578 341.461 55.8359C340.57 55.4141 339.859 54.7109 339.328 53.7266C338.812 52.7266 338.555 51.3828 338.555 49.6953V24.4766Z" fill="#5B7FFF"/>
<path d="M357.422 30.6406V56H353.062V30.6406H357.422ZM352.734 23.9141C352.734 23.2109 352.945 22.6172 353.367 22.1328C353.805 21.6484 354.445 21.4062 355.289 21.4062C356.117 21.4062 356.75 21.6484 357.188 22.1328C357.641 22.6172 357.867 23.2109 357.867 23.9141C357.867 24.5859 357.641 25.1641 357.188 25.6484C356.75 26.1172 356.117 26.3516 355.289 26.3516C354.445 26.3516 353.805 26.1172 353.367 25.6484C352.945 25.1641 352.734 24.5859 352.734 23.9141Z" fill="#5B7FFF"/>
<path d="M374.531 52.9062C375.562 52.9062 376.516 52.6953 377.391 52.2734C378.266 51.8516 378.984 51.2734 379.547 50.5391C380.109 49.7891 380.43 48.9375 380.508 47.9844H384.633C384.555 49.4844 384.047 50.8828 383.109 52.1797C382.188 53.4609 380.977 54.5 379.477 55.2969C377.977 56.0781 376.328 56.4688 374.531 56.4688C372.625 56.4688 370.961 56.1328 369.539 55.4609C368.133 54.7891 366.961 53.8672 366.023 52.6953C365.102 51.5234 364.406 50.1797 363.938 48.6641C363.484 47.1328 363.258 45.5156 363.258 43.8125V42.8281C363.258 41.125 363.484 39.5156 363.938 38C364.406 36.4688 365.102 35.1172 366.023 33.9453C366.961 32.7734 368.133 31.8516 369.539 31.1797C370.961 30.5078 372.625 30.1719 374.531 30.1719C376.516 30.1719 378.25 30.5781 379.734 31.3906C381.219 32.1875 382.383 33.2812 383.227 34.6719C384.086 36.0469 384.555 37.6094 384.633 39.3594H380.508C380.43 38.3125 380.133 37.3672 379.617 36.5234C379.117 35.6797 378.43 35.0078 377.555 34.5078C376.695 33.9922 375.688 33.7344 374.531 33.7344C373.203 33.7344 372.086 34 371.18 34.5312C370.289 35.0469 369.578 35.75 369.047 36.6406C368.531 37.5156 368.156 38.4922 367.922 39.5703C367.703 40.6328 367.594 41.7188 367.594 42.8281V43.8125C367.594 44.9219 367.703 46.0156 367.922 47.0938C368.141 48.1719 368.508 49.1484 369.023 50.0234C369.555 50.8984 370.266 51.6016 371.156 52.1328C372.062 52.6484 373.188 52.9062 374.531 52.9062Z" fill="#5B7FFF"/>
<path d="M404.273 49.2734C404.273 48.6484 404.133 48.0703 403.852 47.5391C403.586 46.9922 403.031 46.5 402.188 46.0625C401.359 45.6094 400.109 45.2188 398.438 44.8906C397.031 44.5938 395.758 44.2422 394.617 43.8359C393.492 43.4297 392.531 42.9375 391.734 42.3594C390.953 41.7812 390.352 41.1016 389.93 40.3203C389.508 39.5391 389.297 38.625 389.297 37.5781C389.297 36.5781 389.516 35.6328 389.953 34.7422C390.406 33.8516 391.039 33.0625 391.852 32.375C392.68 31.6875 393.672 31.1484 394.828 30.7578C395.984 30.3672 397.273 30.1719 398.695 30.1719C400.727 30.1719 402.461 30.5312 403.898 31.25C405.336 31.9688 406.438 32.9297 407.203 34.1328C407.969 35.3203 408.352 36.6406 408.352 38.0938H404.016C404.016 37.3906 403.805 36.7109 403.383 36.0547C402.977 35.3828 402.375 34.8281 401.578 34.3906C400.797 33.9531 399.836 33.7344 398.695 33.7344C397.492 33.7344 396.516 33.9219 395.766 34.2969C395.031 34.6562 394.492 35.1172 394.148 35.6797C393.82 36.2422 393.656 36.8359 393.656 37.4609C393.656 37.9297 393.734 38.3516 393.891 38.7266C394.062 39.0859 394.359 39.4219 394.781 39.7344C395.203 40.0312 395.797 40.3125 396.562 40.5781C397.328 40.8438 398.305 41.1094 399.492 41.375C401.57 41.8438 403.281 42.4062 404.625 43.0625C405.969 43.7188 406.969 44.5234 407.625 45.4766C408.281 46.4297 408.609 47.5859 408.609 48.9453C408.609 50.0547 408.375 51.0703 407.906 51.9922C407.453 52.9141 406.789 53.7109 405.914 54.3828C405.055 55.0391 404.023 55.5547 402.82 55.9297C401.633 56.2891 400.297 56.4688 398.812 56.4688C396.578 56.4688 394.688 56.0703 393.141 55.2734C391.594 54.4766 390.422 53.4453 389.625 52.1797C388.828 50.9141 388.43 49.5781 388.43 48.1719H392.789C392.852 49.3594 393.195 50.3047 393.82 51.0078C394.445 51.6953 395.211 52.1875 396.117 52.4844C397.023 52.7656 397.922 52.9062 398.812 52.9062C400 52.9062 400.992 52.75 401.789 52.4375C402.602 52.125 403.219 51.6953 403.641 51.1484C404.062 50.6016 404.273 49.9766 404.273 49.2734Z" fill="#5B7FFF"/>
<path fill-rule="evenodd" clip-rule="evenodd" d="M77.9412 9.96139C78.1176 10.1392 78.2941 10.3169 78.4706 10.4354C78 10.8502 77.7059 11.4428 77.5882 12.0945C77.4118 13.4574 78.4118 14.761 79.7647 14.9388C80.7647 15.0573 81.7059 14.5832 82.2353 13.8129C83.7647 14.6425 85.4706 14.8202 87.5294 14.8795C88.4706 14.8795 89.1765 15.8276 88.2941 16.9534C83.8235 21.8123 78.5882 23.1159 73 21.753C67.9412 20.5679 65.6471 17.2497 65.8235 13.4574C65.9412 10.2577 68.6471 7.65048 72.1765 7.70973C74.4118 7.76898 76.7059 8.77631 77.9412 9.96139ZM31.2353 34.0186C33.7647 34.0186 35.8824 35.6778 36.5882 37.9887H40.7059C41.2353 37.9887 41.7647 38.1665 42.1765 38.522L54.4118 47.4101C55.4118 48.1804 55.6471 49.6025 54.8824 50.6691C54.1765 51.6764 52.7059 51.9135 51.7059 51.1431L40 42.6105H36C35.0588 44.2104 33.2941 45.277 31.2353 45.277C28.1765 45.277 25.6471 42.7883 25.6471 39.6478C25.6471 36.5666 28.1765 34.0186 31.2353 34.0186ZM21.8824 19.5606C24.1176 19.5606 26.0588 20.9234 26.9412 22.8196H36.5294C37.1176 22.8196 37.5882 22.9973 38 23.2936L62.9412 41.4847C63.9412 42.1957 64.1765 43.6771 63.4118 44.6844C62.7059 45.6917 61.2353 45.9288 60.2353 45.2177L35.8235 27.3822H27.0588C26.2353 29.3968 24.2353 30.8189 21.8824 30.8189C18.8235 30.8189 16.2941 28.3302 16.2941 25.1898C16.2941 22.1085 18.8235 19.5606 21.8824 19.5606ZM17.5882 3.2064C19.8235 3.2064 21.8235 4.56925 22.7059 6.52464H31.2353C31.8235 6.52464 32.2941 6.70241 32.7059 7.05793L63.5294 29.5153C64.5294 30.2264 64.7647 31.7077 64 32.7151C63.2941 33.7224 61.8235 33.9594 60.8235 33.2483L30.5294 11.1465H22.7059C21.8235 13.1019 19.8235 14.4647 17.5882 14.4647C14.4706 14.4647 12 11.9168 12 8.83556C12 5.75434 14.4706 3.2064 17.5882 3.2064ZM25.3529 69.3342C24.8235 69.6305 24.2353 69.9268 23.7059 70.223C17.2941 73.8375 13.9412 76.03 9.11765 80L0 73.3635C6.23529 70.2823 13.2941 67.3788 20 64.9494C13.1765 58.4314 8.47059 49.5433 7.23529 39.47C6.17647 30.8189 7.82353 22.4641 11.4706 15.235C10.7059 18.731 10.5294 22.4048 11 26.1378C13.4118 44.6844 31.2353 57.8981 50.8235 55.6465C59.5882 54.5799 67.2353 50.6099 72.7647 44.9214C75.7059 41.3069 78.2353 37.1591 79 32.478C79.5882 28.8043 76.2353 27.1451 73.1176 26.5526C66 25.1305 59.8235 21.8123 59.8824 13.2796C59.8824 4.80627 68.7647 0.125177 76.2353 0.00666796C82.4706 -0.171095 91.2353 3.2064 92.8824 10.0206L100 12.8649L92.4118 15.4128C92.4118 15.5313 92.3529 15.6498 92.2941 15.7683C92.1765 16.0053 92.0588 16.3016 91.8824 16.5386C91.5294 17.2497 91.0588 17.9607 90.5294 18.6125C88.8824 20.9234 89.5882 22.1678 90.1176 24.5972C90.4118 25.9008 90.6471 27.2637 90.8235 28.6265C85.8235 28.508 84.8235 32.5373 84.2941 34.4927C80.7647 47.1731 72.0588 58.2537 43.3529 63.2903C36.3529 64.5346 30.6471 66.4308 25.3529 69.3342Z" fill="#5B7FFF"/>
<path fill-rule="evenodd" clip-rule="evenodd" d="M91.1764 32.6558C92.0588 54.4614 76.1176 73.6005 54.2353 76.3262C45.4705 77.3928 37.0588 75.7337 29.8235 71.9414C34.3529 69.8083 39.0588 68.4454 44.0588 67.6158C55 65.6605 67.1176 62.2237 75.9411 55.1724C82.4117 49.9581 86.2941 43.5586 88.4705 35.6185C88.8823 34.1372 89.1764 32.5965 91.1764 32.1818V32.6558Z" fill="#00FFB2"/>
</svg>
