<svg width="24" height="24" viewBox="0 0 24 24" fill="none" xmlns="http://www.w3.org/2000/svg">
<path d="M19.9744 11.6479C19.9547 11.6577 19.9375 11.6651 19.9178 11.675C19.7653 11.7537 19.6201 11.8546 19.4922 11.9825L13.5457 17.9391L12.3721 16.7655L12.5345 16.6032L12.5321 16.6007L18.3162 10.8064C19.0419 10.0806 20.0162 9.7608 20.9609 9.84442C21.0865 9.85672 21.2168 9.88383 21.3423 9.91088L21.4899 10.0585C21.9328 10.5014 21.9353 11.2272 21.4899 11.6725L21.4579 11.7045C21.0643 11.4929 20.6018 11.4486 20.1811 11.5741C20.154 11.5814 20.1245 11.5913 20.095 11.6011L19.9744 11.6479Z" fill="white"/>
<path d="M17.9343 10.4508L16.7607 11.6243L10.8094 5.69236C10.273 5.15599 9.95811 4.48185 9.86459 3.78309H9.86951C9.81784 3.39189 9.83504 2.99577 9.91872 2.61195L10.0196 2.51107C10.4649 2.06574 11.1907 2.0682 11.6335 2.51107C11.6508 2.52829 11.668 2.55043 11.6852 2.56766C11.5499 2.826 11.4884 3.11879 11.5007 3.40665C11.5007 3.43126 11.5056 3.45586 11.5056 3.48047L11.513 3.54689C11.513 3.55674 11.5154 3.56412 11.5154 3.57396L11.5228 3.62563C11.5277 3.65024 11.5327 3.66992 11.5376 3.69452C11.5401 3.7019 11.5401 3.70682 11.5425 3.7142C11.5474 3.73881 11.5548 3.76587 11.5622 3.79293C11.5646 3.80031 11.5646 3.80524 11.5671 3.81262C11.5745 3.83477 11.5818 3.86182 11.5917 3.88643C11.5917 3.89135 11.5942 3.89381 11.5942 3.89873C11.6139 3.95778 11.6384 4.01683 11.668 4.07588C11.7467 4.23335 11.85 4.38097 11.9804 4.51137L17.9343 10.4508Z" fill="white"/>
<path d="M12.3537 21.4754L12.3192 21.4409C12.5702 20.9587 12.5726 20.3805 12.3216 19.8983C12.2454 19.7531 12.147 19.6153 12.0264 19.4947L6.07012 13.548L7.24363 12.3744L13.1951 18.3162C13.3156 18.4368 13.4239 18.5598 13.5223 18.6927C13.8569 19.1454 14.0586 19.662 14.1349 20.191C14.1374 20.1984 14.1374 20.2083 14.1398 20.2156C14.1423 20.2279 14.1423 20.2378 14.1448 20.2501C14.1718 20.4691 14.1792 20.6881 14.162 20.907C14.1521 21.0546 14.1324 21.1973 14.1029 21.34L13.9676 21.4754C13.5223 21.9207 12.799 21.9207 12.3537 21.4754Z" fill="white"/>
<path d="M21.8514 9.66737L18.6825 6.51309L14.5615 2.3821C14.3967 1.72518 14.0597 1.1027 13.5454 0.588475C13.324 0.367039 13.0804 0.177589 12.8197 0.0201232C13.5577 -0.0536886 14.3155 0.118539 14.9601 0.536806C14.9626 0.539267 14.9699 0.541727 14.9749 0.546648C14.9847 0.551569 14.9945 0.561411 15.0044 0.566331C15.0216 0.578633 15.0364 0.588475 15.0511 0.598317C15.0609 0.603236 15.0708 0.61308 15.0807 0.617999C15.0954 0.627842 15.1126 0.640145 15.1274 0.649982C15.1348 0.657366 15.1471 0.664744 15.1545 0.672128C15.1717 0.684431 15.1839 0.696734 15.2012 0.709037C15.211 0.718874 15.2209 0.723799 15.2282 0.731177C15.2455 0.74348 15.2578 0.755783 15.275 0.768085C15.2824 0.775464 15.2922 0.780388 15.2996 0.787766C15.3144 0.802529 15.3316 0.814831 15.3463 0.829593C15.3537 0.832053 15.3611 0.839437 15.3685 0.846815C15.3857 0.864036 15.4054 0.878799 15.4226 0.896026L15.5038 0.977215L17.568 3.04641L19.4796 4.94338L23.0249 8.48879C24.3239 9.78787 24.3239 11.894 23.0273 13.1955C22.0752 14.1477 20.6901 14.4012 19.5067 13.9558C19.4821 13.946 19.4624 13.9362 19.4403 13.9287C19.4304 13.9238 19.4181 13.9213 19.4083 13.9164C19.1598 13.8156 18.9212 13.6803 18.6997 13.5179L19.9028 12.3147C20.385 12.5657 20.9632 12.5632 21.4454 12.3123C21.5905 12.236 21.7308 12.14 21.8514 12.0195C22.4984 11.3724 22.4984 10.3144 21.8514 9.66737Z" fill="white"/>
<path d="M2.15672 11.9829C1.50967 12.63 1.50721 13.6855 2.15672 14.335L9.4219 21.5957C9.58674 22.2526 9.9238 22.8751 10.4355 23.382C10.6669 23.6132 10.9202 23.8076 11.1909 23.97C10.4479 24.0487 9.68271 23.874 9.03323 23.4508V23.4557C8.84129 23.3327 8.6617 23.1875 8.4944 23.0202L0.975791 15.5111C-0.323238 14.212 -0.320778 12.1084 0.975791 10.8068C1.7557 10.022 2.83084 9.70953 3.84448 9.87191L3.88138 9.87929C3.8986 9.88175 3.91336 9.88667 3.93058 9.88913C4.41772 9.97772 4.88517 10.1745 5.2985 10.4796L4.4374 11.3407C4.4251 11.353 4.11756 11.6753 4.10526 11.6877C3.62305 11.4367 3.04488 11.4343 2.56267 11.6852C2.41751 11.7615 2.27974 11.8599 2.15672 11.9829Z" fill="white"/>
<path d="M12.0143 2.15362C11.3673 1.50654 10.3094 1.50654 9.66235 2.15362L2.39958 9.42653C1.74268 9.59137 1.12023 9.92848 0.606037 10.4427C0.374772 10.674 0.18041 10.9274 0.0204919 11.1956C-0.0803798 10.2336 0.241917 9.2371 0.97754 8.50145L8.49124 0.977555C9.79027 -0.321535 11.8963 -0.321535 13.1928 0.975096C14.2926 2.07489 14.4624 3.7455 13.7021 5.02244C13.6455 5.1184 13.5815 5.20697 13.5151 5.29801L12.344 4.1367L12.3071 4.09979C12.3686 3.98416 12.4154 3.85868 12.4474 3.73319C12.4498 3.73074 12.4474 3.72828 12.4498 3.72582C12.5458 3.33954 12.499 2.92373 12.312 2.56451C12.2382 2.41689 12.1373 2.27664 12.0143 2.15362Z" fill="white"/>
<path d="M2.52145 12.357L2.55835 12.3201C2.88803 12.4924 3.26691 12.5465 3.62611 12.4825L3.62857 12.4801C3.94841 12.421 4.25841 12.2685 4.50689 12.02L10.4485 6.06827L11.6245 7.24432L11.1177 7.75119L11.1201 7.75365L5.68536 13.1936C5.25974 13.6192 4.748 13.9046 4.20674 14.0522L4.17229 14.0621C4.14523 14.0695 4.15261 14.067 4.14523 14.0695C3.65809 14.1925 3.14882 14.2048 2.6543 14.1039L2.52145 13.9711C2.07613 13.5257 2.07613 12.8024 2.52145 12.357Z" fill="white"/>
<path d="M15.5136 23.0231C15.2848 23.2519 15.0314 23.4414 14.7608 23.589C14.6968 23.6185 14.7076 23.6141 14.6968 23.6185C14.1211 23.9187 13.4765 24.0417 12.8467 23.9826C12.1012 23.9113 11.3803 23.589 10.8095 23.0182C10.3323 22.5408 10.0247 21.9479 9.89679 21.3328C9.71229 20.4298 9.90908 19.4654 10.4823 18.6952L11.6854 19.8984C11.5648 20.1223 11.5033 20.3757 11.4984 20.6267C11.4861 21.0671 11.6485 21.5099 11.9831 21.8445C12.6301 22.4916 13.6881 22.4916 14.3352 21.8445L21.5635 14.606C22.2375 14.4486 22.8797 14.1066 23.4062 13.5801C23.6301 13.3562 23.8195 13.1126 23.9769 12.8518C24.0631 13.7991 23.7432 14.7783 23.0174 15.5041L15.5136 23.0231Z" fill="white"/>
</svg>
